<?xml version="1.0" encoding="iso-8859-1"?>
<!-- Generator: Adobe Illustrator 19.0.0, SVG Export Plug-In . SVG Version: 6.00 Build 0)  -->
<svg version="1.1" id="Layer_1" xmlns="http://www.w3.org/2000/svg" xmlns:xlink="http://www.w3.org/1999/xlink" x="0px" y="0px"
	 viewBox="0 0 494.72 494.72" style="enable-background:new 0 0 494.72 494.72;" xml:space="preserve">
<g>
	<path d="M323.191,4.266L208.199,36.964c-8.164-11.472-21.556-18.976-36.677-18.976c-15.121,0-28.513,7.504-36.677,18.976L4.86,0
		v443.062l166.662,47.394l151.669-43.128L489.86,494.72V51.659L323.191,4.266z M367.775,291.525
		c-2.279-16.89-13.955-30.833-29.584-36.375v-78.138l121.669,34.597V317.71L367.775,291.525z M34.86,177.011l121.662,34.597v106.102
		L34.86,283.113V177.011z M171.522,47.988c8.271,0,15,6.729,15,15s-6.729,15-15,15s-15-6.729-15-15S163.251,47.988,171.522,47.988z
		 M323.193,312.57c-8.271,0-15-6.729-15-15s6.729-15,15-15s15,6.729,15,15S331.465,312.57,323.193,312.57z M186.522,317.71V211.608
		l121.669-34.597v78.14c-15.626,5.543-27.301,19.485-29.58,36.373L186.522,317.71z M308.191,145.822l-121.669,34.597v-75.01
		c16.61-5.891,28.76-21.272,29.902-39.593l91.767-26.094V145.822z M186.522,348.899l98.244-27.936
		c5.351,8.757,13.611,15.545,23.425,19.026v80.414L186.522,455V348.899z M459.86,180.419l-121.669-34.597V39.72L459.86,74.317
		V180.419z M126.62,65.814c1.142,18.322,13.292,33.703,29.902,39.594v75.01L34.86,145.822V39.721L126.62,65.814z M34.86,314.302
		l121.662,34.597V455L34.86,420.403V314.302z M338.191,420.403V339.99c9.815-3.48,18.077-10.269,23.428-19.026l98.241,27.936V455
		L338.191,420.403z"/>
	<path style="fill:#FFFFFF;" d="M171.522,77.988c8.271,0,15-6.729,15-15s-6.729-15-15-15s-15,6.729-15,15
		S163.251,77.988,171.522,77.988z"/>
	<path style="fill:#FFFFFF;" d="M323.193,282.57c-8.271,0-15,6.729-15,15s6.729,15,15,15s15-6.729,15-15
		S331.465,282.57,323.193,282.57z"/>
</g>
<g>
</g>
<g>
</g>
<g>
</g>
<g>
</g>
<g>
</g>
<g>
</g>
<g>
</g>
<g>
</g>
<g>
</g>
<g>
</g>
<g>
</g>
<g>
</g>
<g>
</g>
<g>
</g>
<g>
</g>
</svg>
